<svg xmlns="http://www.w3.org/2000/svg" viewBox="0 0 150 140" width="150" height="140" role="img" aria-label="how_it_works"><style>@keyframes hop { 0%,100% { transform: translateY(0) } 50% { transform: translateY(-4px) } } .ic { animation: hop 2.6s ease-in-out infinite; }
@media (prefers-reduced-motion: reduce) { * { animation: none !important; } }</style><rect width="150" height="140" rx="14" fill="#128a87"/><g class="ic"><rect x="47.0" y="22" width="4" height="4" fill="#000000"/><rect x="51.0" y="22" width="4" height="4" fill="#000000"/><rect x="55.0" y="22" width="4" height="4" fill="#000000"/><rect x="59.0" y="22" width="4" height="4" fill="#000000"/><rect x="63.0" y="22" width="4" height="4" fill="#000000"/><rect x="67.0" y="22" width="4" height="4" fill="#000000"/><rect x="71.0" y="22" width="4" height="4" fill="#000000"/><rect x="75.0" y="22" width="4" height="4" fill="#000000"/><rect x="79.0" y="22" width="4" height="4" fill="#000000"/><rect x="83.0" y="22" width="4" height="4" fill="#000000"/><rect x="87.0" y="22" width="4" height="4" fill="#000000"/><rect x="91.0" y="22" width="4" height="4" fill="#000000"/><rect x="95.0" y="22" width="4" height="4" fill="#000000"/><rect x="99.0" y="22" width="4" height="4" fill="#000000"/><rect x="47.0" y="26" width="4" height="4" fill="#000000"/><rect x="51.0" y="26" width="4" height="4" fill="#c0c0c0"/><rect x="55.0" y="26" width="4" height="4" fill="#c0c0c0"/><rect x="59.0" y="26" width="4" height="4" fill="#c0c0c0"/><rect x="63.0" y="26" width="4" height="4" fill="#c0c0c0"/><rect x="67.0" y="26" width="4" height="4" fill="#c0c0c0"/><rect x="71.0" y="26" width="4" height="4" fill="#c0c0c0"/><rect x="75.0" y="26" width="4" height="4" fill="#c0c0c0"/><rect x="79.0" y="26" width="4" height="4" fill="#c0c0c0"/><rect x="83.0" y="26" width="4" height="4" fill="#c0c0c0"/><rect x="87.0" y="26" width="4" height="4" fill="#c0c0c0"/><rect x="91.0" y="26" width="4" height="4" fill="#c0c0c0"/><rect x="95.0" y="26" width="4" height="4" fill="#c0c0c0"/><rect x="99.0" y="26" width="4" height="4" fill="#000000"/><rect x="47.0" y="30" width="4" height="4" fill="#000000"/><rect x="51.0" y="30" width="4" height="4" fill="#c0c0c0"/><rect x="55.0" y="30" width="4" height="4" fill="#000000"/><rect x="59.0" y="30" width="4" height="4" fill="#000000"/><rect x="63.0" y="30" width="4" height="4" fill="#000000"/><rect x="67.0" y="30" width="4" height="4" fill="#000000"/><rect x="71.0" y="30" width="4" height="4" fill="#000000"/><rect x="75.0" y="30" width="4" height="4" fill="#000000"/><rect x="79.0" y="30" width="4" height="4" fill="#000000"/><rect x="83.0" y="30" width="4" height="4" fill="#000000"/><rect x="87.0" y="30" width="4" height="4" fill="#000000"/><rect x="91.0" y="30" width="4" height="4" fill="#000000"/><rect x="95.0" y="30" width="4" height="4" fill="#c0c0c0"/><rect x="99.0" y="30" width="4" height="4" fill="#000000"/><rect x="47.0" y="34" width="4" height="4" fill="#000000"/><rect x="51.0" y="34" width="4" height="4" fill="#c0c0c0"/><rect x="55.0" y="34" width="4" height="4" fill="#000000"/><rect x="59.0" y="34" width="4" height="4" fill="#4be3c1"/><rect x="63.0" y="34" width="4" height="4" fill="#4be3c1"/><rect x="67.0" y="34" width="4" height="4" fill="#4be3c1"/><rect x="71.0" y="34" width="4" height="4" fill="#4be3c1"/><rect x="75.0" y="34" width="4" height="4" fill="#4be3c1"/><rect x="79.0" y="34" width="4" height="4" fill="#4be3c1"/><rect x="83.0" y="34" width="4" height="4" fill="#4be3c1"/><rect x="87.0" y="34" width="4" height="4" fill="#4be3c1"/><rect x="91.0" y="34" width="4" height="4" fill="#000000"/><rect x="95.0" y="34" width="4" height="4" fill="#c0c0c0"/><rect x="99.0" y="34" width="4" height="4" fill="#000000"/><rect x="47.0" y="38" width="4" height="4" fill="#000000"/><rect x="51.0" y="38" width="4" height="4" fill="#c0c0c0"/><rect x="55.0" y="38" width="4" height="4" fill="#000000"/><rect x="59.0" y="38" width="4" height="4" fill="#4be3c1"/><rect x="63.0" y="38" width="4" height="4" fill="#ff4f8b"/><rect x="67.0" y="38" width="4" height="4" fill="#ff4f8b"/><rect x="71.0" y="38" width="4" height="4" fill="#4be3c1"/><rect x="75.0" y="38" width="4" height="4" fill="#4be3c1"/><rect x="79.0" y="38" width="4" height="4" fill="#4be3c1"/><rect x="83.0" y="38" width="4" height="4" fill="#4be3c1"/><rect x="87.0" y="38" width="4" height="4" fill="#4be3c1"/><rect x="91.0" y="38" width="4" height="4" fill="#000000"/><rect x="95.0" y="38" width="4" height="4" fill="#c0c0c0"/><rect x="99.0" y="38" width="4" height="4" fill="#000000"/><rect x="47.0" y="42" width="4" height="4" fill="#000000"/><rect x="51.0" y="42" width="4" height="4" fill="#c0c0c0"/><rect x="55.0" y="42" width="4" height="4" fill="#000000"/><rect x="59.0" y="42" width="4" height="4" fill="#4be3c1"/><rect x="63.0" y="42" width="4" height="4" fill="#4be3c1"/><rect x="67.0" y="42" width="4" height="4" fill="#4be3c1"/><rect x="71.0" y="42" width="4" height="4" fill="#ffc23d"/><rect x="75.0" y="42" width="4" height="4" fill="#ffc23d"/><rect x="79.0" y="42" width="4" height="4" fill="#4be3c1"/><rect x="83.0" y="42" width="4" height="4" fill="#4be3c1"/><rect x="87.0" y="42" width="4" height="4" fill="#4be3c1"/><rect x="91.0" y="42" width="4" height="4" fill="#000000"/><rect x="95.0" y="42" width="4" height="4" fill="#c0c0c0"/><rect x="99.0" y="42" width="4" height="4" fill="#000000"/><rect x="47.0" y="46" width="4" height="4" fill="#000000"/><rect x="51.0" y="46" width="4" height="4" fill="#c0c0c0"/><rect x="55.0" y="46" width="4" height="4" fill="#000000"/><rect x="59.0" y="46" width="4" height="4" fill="#4be3c1"/><rect x="63.0" y="46" width="4" height="4" fill="#4be3c1"/><rect x="67.0" y="46" width="4" height="4" fill="#4be3c1"/><rect x="71.0" y="46" width="4" height="4" fill="#4be3c1"/><rect x="75.0" y="46" width="4" height="4" fill="#4be3c1"/><rect x="79.0" y="46" width="4" height="4" fill="#4be3c1"/><rect x="83.0" y="46" width="4" height="4" fill="#4be3c1"/><rect x="87.0" y="46" width="4" height="4" fill="#4be3c1"/><rect x="91.0" y="46" width="4" height="4" fill="#000000"/><rect x="95.0" y="46" width="4" height="4" fill="#c0c0c0"/><rect x="99.0" y="46" width="4" height="4" fill="#000000"/><rect x="47.0" y="50" width="4" height="4" fill="#000000"/><rect x="51.0" y="50" width="4" height="4" fill="#c0c0c0"/><rect x="55.0" y="50" width="4" height="4" fill="#000000"/><rect x="59.0" y="50" width="4" height="4" fill="#000000"/><rect x="63.0" y="50" width="4" height="4" fill="#000000"/><rect x="67.0" y="50" width="4" height="4" fill="#000000"/><rect x="71.0" y="50" width="4" height="4" fill="#000000"/><rect x="75.0" y="50" width="4" height="4" fill="#000000"/><rect x="79.0" y="50" width="4" height="4" fill="#000000"/><rect x="83.0" y="50" width="4" height="4" fill="#000000"/><rect x="87.0" y="50" width="4" height="4" fill="#000000"/><rect x="91.0" y="50" width="4" height="4" fill="#000000"/><rect x="95.0" y="50" width="4" height="4" fill="#c0c0c0"/><rect x="99.0" y="50" width="4" height="4" fill="#000000"/><rect x="47.0" y="54" width="4" height="4" fill="#000000"/><rect x="51.0" y="54" width="4" height="4" fill="#c0c0c0"/><rect x="55.0" y="54" width="4" height="4" fill="#c0c0c0"/><rect x="59.0" y="54" width="4" height="4" fill="#c0c0c0"/><rect x="63.0" y="54" width="4" height="4" fill="#c0c0c0"/><rect x="67.0" y="54" width="4" height="4" fill="#c0c0c0"/><rect x="71.0" y="54" width="4" height="4" fill="#c0c0c0"/><rect x="75.0" y="54" width="4" height="4" fill="#c0c0c0"/><rect x="79.0" y="54" width="4" height="4" fill="#c0c0c0"/><rect x="83.0" y="54" width="4" height="4" fill="#c0c0c0"/><rect x="87.0" y="54" width="4" height="4" fill="#c0c0c0"/><rect x="91.0" y="54" width="4" height="4" fill="#808080"/><rect x="95.0" y="54" width="4" height="4" fill="#c0c0c0"/><rect x="99.0" y="54" width="4" height="4" fill="#000000"/><rect x="47.0" y="58" width="4" height="4" fill="#000000"/><rect x="51.0" y="58" width="4" height="4" fill="#000000"/><rect x="55.0" y="58" width="4" height="4" fill="#000000"/><rect x="59.0" y="58" width="4" height="4" fill="#000000"/><rect x="63.0" y="58" width="4" height="4" fill="#000000"/><rect x="67.0" y="58" width="4" height="4" fill="#000000"/><rect x="71.0" y="58" width="4" height="4" fill="#000000"/><rect x="75.0" y="58" width="4" height="4" fill="#000000"/><rect x="79.0" y="58" width="4" height="4" fill="#000000"/><rect x="83.0" y="58" width="4" height="4" fill="#000000"/><rect x="87.0" y="58" width="4" height="4" fill="#000000"/><rect x="91.0" y="58" width="4" height="4" fill="#000000"/><rect x="95.0" y="58" width="4" height="4" fill="#000000"/><rect x="99.0" y="58" width="4" height="4" fill="#000000"/><rect x="67.0" y="62" width="4" height="4" fill="#000000"/><rect x="71.0" y="62" width="4" height="4" fill="#808080"/><rect x="75.0" y="62" width="4" height="4" fill="#808080"/><rect x="79.0" y="62" width="4" height="4" fill="#000000"/><rect x="55.0" y="66" width="4" height="4" fill="#000000"/><rect x="59.0" y="66" width="4" height="4" fill="#000000"/><rect x="63.0" y="66" width="4" height="4" fill="#000000"/><rect x="67.0" y="66" width="4" height="4" fill="#000000"/><rect x="71.0" y="66" width="4" height="4" fill="#000000"/><rect x="75.0" y="66" width="4" height="4" fill="#000000"/><rect x="79.0" y="66" width="4" height="4" fill="#000000"/><rect x="83.0" y="66" width="4" height="4" fill="#000000"/><rect x="87.0" y="66" width="4" height="4" fill="#000000"/><rect x="91.0" y="66" width="4" height="4" fill="#000000"/><rect x="51.0" y="70" width="4" height="4" fill="#000000"/><rect x="55.0" y="70" width="4" height="4" fill="#c0c0c0"/><rect x="59.0" y="70" width="4" height="4" fill="#c0c0c0"/><rect x="63.0" y="70" width="4" height="4" fill="#c0c0c0"/><rect x="67.0" y="70" width="4" height="4" fill="#c0c0c0"/><rect x="71.0" y="70" width="4" height="4" fill="#c0c0c0"/><rect x="75.0" y="70" width="4" height="4" fill="#c0c0c0"/><rect x="79.0" y="70" width="4" height="4" fill="#c0c0c0"/><rect x="83.0" y="70" width="4" height="4" fill="#c0c0c0"/><rect x="87.0" y="70" width="4" height="4" fill="#c0c0c0"/><rect x="91.0" y="70" width="4" height="4" fill="#c0c0c0"/><rect x="95.0" y="70" width="4" height="4" fill="#c0c0c0"/><rect x="99.0" y="70" width="4" height="4" fill="#000000"/><rect x="51.0" y="74" width="4" height="4" fill="#000000"/><rect x="55.0" y="74" width="4" height="4" fill="#c0c0c0"/><rect x="59.0" y="74" width="4" height="4" fill="#808080"/><rect x="63.0" y="74" width="4" height="4" fill="#808080"/><rect x="67.0" y="74" width="4" height="4" fill="#808080"/><rect x="71.0" y="74" width="4" height="4" fill="#808080"/><rect x="75.0" y="74" width="4" height="4" fill="#808080"/><rect x="79.0" y="74" width="4" height="4" fill="#808080"/><rect x="83.0" y="74" width="4" height="4" fill="#808080"/><rect x="87.0" y="74" width="4" height="4" fill="#808080"/><rect x="91.0" y="74" width="4" height="4" fill="#c0c0c0"/><rect x="95.0" y="74" width="4" height="4" fill="#000000"/><rect x="51.0" y="78" width="4" height="4" fill="#000000"/><rect x="55.0" y="78" width="4" height="4" fill="#000000"/><rect x="59.0" y="78" width="4" height="4" fill="#000000"/><rect x="63.0" y="78" width="4" height="4" fill="#000000"/><rect x="67.0" y="78" width="4" height="4" fill="#000000"/><rect x="71.0" y="78" width="4" height="4" fill="#000000"/><rect x="75.0" y="78" width="4" height="4" fill="#000000"/><rect x="79.0" y="78" width="4" height="4" fill="#000000"/><rect x="83.0" y="78" width="4" height="4" fill="#000000"/><rect x="87.0" y="78" width="4" height="4" fill="#000000"/><rect x="91.0" y="78" width="4" height="4" fill="#000000"/><rect x="95.0" y="78" width="4" height="4" fill="#000000"/></g><rect x="12.400000000000006" y="98" width="125.19999999999999" height="27" fill="#1a0f2e"/><rect x="12.400000000000006" y="98" width="125.19999999999999" height="27" fill="none" stroke="#fff1dc" stroke-width="1.5" stroke-dasharray="2 2"/><path d="M20.3 110.3H21Q21.1 110.7 21.1 111.3Q21.1 111.8 21 112.2H20.3Q20.4 112.6 20.4 113.2Q20.4 113.8 20.3 114.2Q20.4 114.5 20.4 115.1Q20.4 115.7 20.3 116.1Q20.4 116.5 20.4 117Q20.4 117.6 20.3 118H18.4Q18.3 117.6 18.3 117Q18.3 116.5 18.4 116.1Q18.3 115.7 18.3 115.1Q18.3 114.5 18.4 114.2Q18.3 113.8 18.3 113.2Q18.3 112.6 18.4 112.2Q18.3 111.8 18.3 111.3Q18.3 110.7 18.4 110.3Q18.3 109.9 18.3 109.4Q18.3 108.8 18.4 108.4Q18.3 108 18.3 107.4Q18.3 106.9 18.4 106.5Q18.3 106.1 18.3 105.5Q18.3 104.9 18.4 104.6H20.3Q20.4 104.9 20.4 105.5Q20.4 106.1 20.3 106.5Q20.4 106.9 20.4 107.4Q20.4 108 20.3 108.4Q20.4 108.8 20.4 109.4Q20.4 109.9 20.3 110.3ZM26.1 113.2Q26.1 113.8 26 114.2Q26.1 114.5 26.1 115.1Q26.1 115.7 26 116.1Q26.1 116.5 26.1 117Q26.1 117.6 26 118H24.1Q24 117.6 24 117Q24 116.5 24.1 116.1Q24 115.7 24 115.1Q24 114.5 24.1 114.2Q24 113.8 24 113.2Q24 112.6 24.1 112.2Q24 111.8 24 111.3Q24 110.7 24.1 110.3H21Q20.9 109.9 20.9 109.4Q20.9 108.8 21 108.4H24.8Q24.9 108.8 24.9 109.4Q24.9 109.9 24.8 110.3H26Q26.1 110.7 26.1 111.3Q26.1 111.8 26 112.2Q26.1 112.6 26.1 113.2ZM35.6 114.2H34.9Q35 114.5 35 115.1Q35 115.7 34.9 116.1H33.7Q33.8 116.5 33.8 117Q33.8 117.6 33.7 118H29.9Q29.8 117.6 29.8 117Q29.8 116.5 29.9 116.1H28.7Q28.6 115.7 28.6 115.1Q28.6 114.5 28.7 114.2H28Q27.9 113.8 27.9 113.2Q27.9 112.6 28 112.2H28.7Q28.6 111.8 28.6 111.3Q28.6 110.7 28.7 110.3H29.9Q29.8 109.9 29.8 109.4Q29.8 108.8 29.9 108.4H33.7Q33.8 108.8 33.8 109.4Q33.8 109.9 33.7 110.3H34.9Q35 110.7 35 111.3Q35 111.8 34.9 112.2H35.6Q35.7 112.6 35.7 113.2Q35.7 113.8 35.6 114.2ZM33.7 114.2Q33.6 113.8 33.6 113.2Q33.6 112.6 33.7 112.2H33Q32.9 111.8 32.9 111.3Q32.9 110.7 33 110.3H30.6Q30.7 110.7 30.7 111.3Q30.7 111.8 30.6 112.2H29.9Q30 112.6 30 113.2Q30 113.8 29.9 114.2H30.6Q30.7 114.5 30.7 115.1Q30.7 115.7 30.6 116.1H33Q32.9 115.7 32.9 115.1Q32.9 114.5 33 114.2ZM45.2 110.3Q45.3 110.7 45.3 111.3Q45.3 111.8 45.2 112.2H44.5Q44.6 112.6 44.6 113.2Q44.6 113.8 44.5 114.2Q44.6 114.5 44.6 115.1Q44.6 115.7 44.5 116.1H44Q44.1 116.5 44.1 117Q44.1 117.6 44 118H42.6Q42.5 117.6 42.5 117Q42.5 116.5 42.6 116.1H42.1Q42 115.7 42 115.1Q42 114.5 42.1 114.2H40.7Q40.8 114.5 40.8 115.1Q40.8 115.7 40.7 116.1H40.2Q40.3 116.5 40.3 117Q40.3 117.6 40.2 118H38.8Q38.7 117.6 38.7 117Q38.7 116.5 38.8 116.1H38.3Q38.2 115.7 38.2 115.1Q38.2 114.5 38.3 114.2Q38.2 113.8 38.2 113.2Q38.2 112.6 38.3 112.2H37.6Q37.5 111.8 37.5 111.3Q37.5 110.7 37.6 110.3Q37.5 109.9 37.5 109.4Q37.5 108.8 37.6 108.4H39.5Q39.6 108.8 39.6 109.4Q39.6 109.9 39.5 110.3Q39.6 110.7 39.6 111.3Q39.6 111.8 39.5 112.2Q39.6 112.6 39.6 113.2Q39.6 113.8 39.5 114.2H40.2Q40.1 113.8 40.1 113.2Q40.1 112.6 40.2 112.2H40.7Q40.6 111.8 40.6 111.3Q40.6 110.7 40.7 110.3Q40.6 109.9 40.6 109.4Q40.6 108.8 40.7 108.4H42.1Q42.2 108.8 42.2 109.4Q42.2 109.9 42.1 110.3Q42.2 110.7 42.2 111.3Q42.2 111.8 42.1 112.2H42.6Q42.7 112.6 42.7 113.2Q42.7 113.8 42.6 114.2H43.3Q43.2 113.8 43.2 113.2Q43.2 112.6 43.3 112.2Q43.2 111.8 43.2 111.3Q43.2 110.7 43.3 110.3Q43.2 109.9 43.2 109.4Q43.2 108.8 43.3 108.4H45.2Q45.3 108.8 45.3 109.4Q45.3 109.9 45.2 110.3ZM54.9 117Q54.9 117.6 54.8 118H47.2Q47.1 117.6 47.1 117Q47.1 116.5 47.2 116.1H54.8Q54.9 116.5 54.9 117ZM59.6 106.5Q59.5 106.1 59.5 105.5Q59.5 104.9 59.6 104.6H61.6Q61.7 104.9 61.7 105.5Q61.7 106.1 61.6 106.5ZM63.6 117Q63.6 117.6 63.5 118H57.7Q57.6 117.6 57.6 117Q57.6 116.5 57.7 116.1H59.6Q59.5 115.7 59.5 115.1Q59.5 114.5 59.6 114.2Q59.5 113.8 59.5 113.2Q59.5 112.6 59.6 112.2Q59.5 111.8 59.5 111.3Q59.5 110.7 59.6 110.3H58.2Q58.1 109.9 58.1 109.4Q58.1 108.8 58.2 108.4H61.6Q61.7 108.8 61.7 109.4Q61.7 109.9 61.6 110.3Q61.7 110.7 61.7 111.3Q61.7 111.8 61.6 112.2Q61.7 112.6 61.7 113.2Q61.7 113.8 61.6 114.2Q61.7 114.5 61.7 115.1Q61.7 115.7 61.6 116.1H63.5Q63.6 116.5 63.6 117ZM73.1 116.1Q73.2 116.5 73.2 117Q73.2 117.6 73.1 118H69.2Q69.1 117.6 69.1 117Q69.1 116.5 69.2 116.1H68.3Q68.2 115.7 68.2 115.1Q68.2 114.5 68.3 114.2Q68.2 113.8 68.2 113.2Q68.2 112.6 68.3 112.2Q68.2 111.8 68.2 111.3Q68.2 110.7 68.3 110.3H66.4Q66.3 109.9 66.3 109.4Q66.3 108.8 66.4 108.4H68.3Q68.2 108 68.2 107.4Q68.2 106.9 68.3 106.5Q68.2 106.1 68.2 105.5Q68.2 104.9 68.3 104.6H70.2Q70.3 104.9 70.3 105.5Q70.3 106.1 70.2 106.5Q70.3 106.9 70.3 107.4Q70.3 108 70.2 108.4H73.1Q73.2 108.8 73.2 109.4Q73.2 109.9 73.1 110.3H70.2Q70.3 110.7 70.3 111.3Q70.3 111.8 70.2 112.2Q70.3 112.6 70.3 113.2Q70.3 113.8 70.2 114.2Q70.3 114.5 70.3 115.1Q70.3 115.7 70.2 116.1ZM83.7 117Q83.7 117.6 83.6 118H76Q75.9 117.6 75.9 117Q75.9 116.5 76 116.1H83.6Q83.7 116.5 83.7 117ZM93.2 110.3Q93.3 110.7 93.3 111.3Q93.3 111.8 93.2 112.2H92.5Q92.6 112.6 92.6 113.2Q92.6 113.8 92.5 114.2Q92.6 114.5 92.6 115.1Q92.6 115.7 92.5 116.1H92Q92.1 116.5 92.1 117Q92.1 117.6 92 118H90.6Q90.5 117.6 90.5 117Q90.5 116.5 90.6 116.1H90.1Q90 115.7 90 115.1Q90 114.5 90.1 114.2H88.7Q88.8 114.5 88.8 115.1Q88.8 115.7 88.7 116.1H88.2Q88.3 116.5 88.3 117Q88.3 117.6 88.2 118H86.8Q86.7 117.6 86.7 117Q86.7 116.5 86.8 116.1H86.3Q86.2 115.7 86.2 115.1Q86.2 114.5 86.3 114.2Q86.2 113.8 86.2 113.2Q86.2 112.6 86.3 112.2H85.6Q85.5 111.8 85.5 111.3Q85.5 110.7 85.6 110.3Q85.5 109.9 85.5 109.4Q85.5 108.8 85.6 108.4H87.5Q87.6 108.8 87.6 109.4Q87.6 109.9 87.5 110.3Q87.6 110.7 87.6 111.3Q87.6 111.8 87.5 112.2Q87.6 112.6 87.6 113.2Q87.6 113.8 87.5 114.2H88.2Q88.1 113.8 88.1 113.2Q88.1 112.6 88.2 112.2H88.7Q88.6 111.8 88.6 111.3Q88.6 110.7 88.7 110.3Q88.6 109.9 88.6 109.4Q88.6 108.8 88.7 108.4H90.1Q90.2 108.8 90.2 109.4Q90.2 109.9 90.1 110.3Q90.2 110.7 90.2 111.3Q90.2 111.8 90.1 112.2H90.6Q90.7 112.6 90.7 113.2Q90.7 113.8 90.6 114.2H91.3Q91.2 113.8 91.2 113.2Q91.2 112.6 91.3 112.2Q91.2 111.8 91.2 111.3Q91.2 110.7 91.3 110.3Q91.2 109.9 91.2 109.4Q91.2 108.8 91.3 108.4H93.2Q93.3 108.8 93.3 109.4Q93.3 109.9 93.2 110.3ZM102.8 114.2H102.1Q102.2 114.5 102.2 115.1Q102.2 115.7 102.1 116.1H100.9Q101 116.5 101 117Q101 117.6 100.9 118H97.1Q97 117.6 97 117Q97 116.5 97.1 116.1H95.9Q95.8 115.7 95.8 115.1Q95.8 114.5 95.9 114.2H95.2Q95.1 113.8 95.1 113.2Q95.1 112.6 95.2 112.2H95.9Q95.8 111.8 95.8 111.3Q95.8 110.7 95.9 110.3H97.1Q97 109.9 97 109.4Q97 108.8 97.1 108.4H100.9Q101 108.8 101 109.4Q101 109.9 100.9 110.3H102.1Q102.2 110.7 102.2 111.3Q102.2 111.8 102.1 112.2H102.8Q102.9 112.6 102.9 113.2Q102.9 113.8 102.8 114.2ZM100.9 114.2Q100.8 113.8 100.8 113.2Q100.8 112.6 100.9 112.2H100.2Q100.1 111.8 100.1 111.3Q100.1 110.7 100.2 110.3H97.8Q97.9 110.7 97.9 111.3Q97.9 111.8 97.8 112.2H97.1Q97.2 112.6 97.2 113.2Q97.2 113.8 97.1 114.2H97.8Q97.9 114.5 97.9 115.1Q97.9 115.7 97.8 116.1H100.2Q100.1 115.7 100.1 115.1Q100.1 114.5 100.2 114.2ZM112.5 111.3Q112.5 111.8 112.4 112.2H110.5Q110.4 111.8 110.4 111.3Q110.4 110.7 110.5 110.3H108.8Q108.9 110.7 108.9 111.3Q108.9 111.8 108.8 112.2H108.1Q108.2 112.6 108.2 113.2Q108.2 113.8 108.1 114.2Q108.2 114.5 108.2 115.1Q108.2 115.7 108.1 116.1H109.6Q109.7 116.5 109.7 117Q109.7 117.6 109.6 118H104.8Q104.7 117.6 104.7 117Q104.7 116.5 104.8 116.1H106.2Q106.1 115.7 106.1 115.1Q106.1 114.5 106.2 114.2Q106.1 113.8 106.1 113.2Q106.1 112.6 106.2 112.2Q106.1 111.8 106.1 111.3Q106.1 110.7 106.2 110.3H104.8Q104.7 109.9 104.7 109.4Q104.7 108.8 104.8 108.4H107.2Q107.3 108.8 107.3 109.4Q107.3 109.9 107.2 110.3H108.1Q108 109.9 108 109.4Q108 108.8 108.1 108.4H111.7Q111.8 108.8 111.8 109.4Q111.8 109.9 111.7 110.3H112.4Q112.5 110.7 112.5 111.3ZM122.1 117Q122.1 117.6 122 118H118.7Q118.6 117.6 118.6 117Q118.6 116.5 118.7 116.1H117.7Q117.6 115.7 117.6 115.1Q117.6 114.5 117.7 114.2H116.3Q116.4 114.5 116.4 115.1Q116.4 115.7 116.3 116.1Q116.4 116.5 116.4 117Q116.4 117.6 116.3 118H114.4Q114.3 117.6 114.3 117Q114.3 116.5 114.4 116.1Q114.3 115.7 114.3 115.1Q114.3 114.5 114.4 114.2Q114.3 113.8 114.3 113.2Q114.3 112.6 114.4 112.2Q114.3 111.8 114.3 111.3Q114.3 110.7 114.4 110.3Q114.3 109.9 114.3 109.4Q114.3 108.8 114.4 108.4Q114.3 108 114.3 107.4Q114.3 106.9 114.4 106.5Q114.3 106.1 114.3 105.5Q114.3 104.9 114.4 104.6H116.3Q116.4 104.9 116.4 105.5Q116.4 106.1 116.3 106.5Q116.4 106.9 116.4 107.4Q116.4 108 116.3 108.4Q116.4 108.8 116.4 109.4Q116.4 109.9 116.3 110.3Q116.4 110.7 116.4 111.3Q116.4 111.8 116.3 112.2H117.7Q117.6 111.8 117.6 111.3Q117.6 110.7 117.7 110.3H118.7Q118.6 109.9 118.6 109.4Q118.6 108.8 118.7 108.4H121.6Q121.7 108.8 121.7 109.4Q121.7 109.9 121.6 110.3H119.6Q119.7 110.7 119.7 111.3Q119.7 111.8 119.6 112.2H118.7Q118.8 112.6 118.8 113.2Q118.8 113.8 118.7 114.2H119.6Q119.7 114.5 119.7 115.1Q119.7 115.7 119.6 116.1H122Q122.1 116.5 122.1 117ZM131.2 116.1H130.2Q130.3 116.5 130.3 117Q130.3 117.6 130.2 118H124.9Q124.8 117.6 124.8 117Q124.8 116.5 124.9 116.1H129.2Q129.1 115.7 129.1 115.1Q129.1 114.5 129.2 114.2H125.4Q125.3 113.8 125.3 113.2Q125.3 112.6 125.4 112.2H124.4Q124.3 111.8 124.3 111.3Q124.3 110.7 124.4 110.3H125.4Q125.3 109.9 125.3 109.4Q125.3 108.8 125.4 108.4H130.7Q130.8 108.8 130.8 109.4Q130.8 109.9 130.7 110.3H126.4Q126.5 110.7 126.5 111.3Q126.5 111.8 126.4 112.2H130.2Q130.3 112.6 130.3 113.2Q130.3 113.8 130.2 114.2H131.2Q131.3 114.5 131.3 115.1Q131.3 115.7 131.2 116.1Z" fill="#ffffff"/></svg>